REM DIRINDEX 1\5,1\2\6,1\2\7,1\3\8,1\3\9,1\3\10,1\3\11,1\4\12,1\4\13,1\4\14
REM DIRNAME cjc043,folder01,folder02,folder03,folder04,folder05,folder06,folder07,folder08,folder09,folder10,folder11,folder12,folder13
TITLE ""
FILE "5Q_t_289-304.mp3" MP3
  TRACK 01 AUDIO
    TITLE "6:cjc043_0984"
    INDEX 01 00:00:00
  TRACK 02 AUDIO
    TITLE "0:"
    INDEX 01 00:00:58
  TRACK 03 AUDIO
    TITLE "7:cjc043_0985"
    INDEX 01 00:01:36
  TRACK 04 AUDIO
    TITLE "0:"
    INDEX 01 00:03:43
  TRACK 05 AUDIO
    TITLE "6:cjc043_0986"
    INDEX 01 00:04:15
  TRACK 06 AUDIO
    TITLE "0:"
    INDEX 01 00:05:16
  TRACK 07 AUDIO
    TITLE "7:cjc043_0987"
    INDEX 01 00:06:00
  TRACK 08 AUDIO
    TITLE "0:"
    INDEX 01 00:07:19
  TRACK 09 AUDIO
    TITLE "6:cjc043_0988"
    INDEX 01 00:07:70
  TRACK 10 AUDIO
    TITLE "0:"
    INDEX 01 00:08:72
  TRACK 11 AUDIO
    TITLE "7:cjc043_0989"
    INDEX 01 00:09:55
  TRACK 12 AUDIO
    TITLE "0:"
    INDEX 01 00:10:55
  TRACK 13 AUDIO
    TITLE "6:cjc043_0990"
    INDEX 01 00:11:35
  TRACK 14 AUDIO
    TITLE "0:"
    INDEX 01 00:12:40
  TRACK 15 AUDIO
    TITLE "7:cjc043_0991"
    INDEX 01 00:13:14
  TRACK 16 AUDIO
    TITLE "0:"
    INDEX 01 00:14:13
  TRACK 17 AUDIO
    TITLE "6:cjc043_0992"
    INDEX 01 00:14:68
  TRACK 18 AUDIO
    TITLE "0:"
    INDEX 01 00:15:70
  TRACK 19 AUDIO
    TITLE "7:cjc043_0993"
    INDEX 01 00:16:46
  TRACK 20 AUDIO
    TITLE "0:"
    INDEX 01 00:17:43
  TRACK 21 AUDIO
    TITLE "6:cjc043_0994"
    INDEX 01 00:18:25
  TRACK 22 AUDIO
    TITLE "0:"
    INDEX 01 00:19:44
  TRACK 23 AUDIO
    TITLE "7:cjc043_0995"
    INDEX 01 00:20:20
  TRACK 24 AUDIO
    TITLE "0:"
    INDEX 01 00:21:19
  TRACK 25 AUDIO
    TITLE "6:cjc043_0996"
    INDEX 01 00:22:01
  TRACK 26 AUDIO
    TITLE "0:"
    INDEX 01 00:23:03
  TRACK 27 AUDIO
    TITLE "7:cjc043_0997"
    INDEX 01 00:23:55
  TRACK 28 AUDIO
    TITLE "0:"
    INDEX 01 00:26:58
  TRACK 29 AUDIO
    TITLE "6:cjc043_0998"
    INDEX 01 00:27:36
  TRACK 30 AUDIO
    TITLE "0:"
    INDEX 01 00:28:37
  TRACK 31 AUDIO
    TITLE "7:cjc043_0999"
    INDEX 01 00:29:17
  TRACK 32 AUDIO
    TITLE "0:"
    INDEX 01 00:30:22
  TRACK 33 AUDIO
    TITLE "6:cjc043_1000"
    INDEX 01 00:30:73
  TRACK 34 AUDIO
    TITLE "0:"
    INDEX 01 00:31:67
  TRACK 35 AUDIO
    TITLE "7:cjc043_1001"
    INDEX 01 00:32:39
  TRACK 36 AUDIO
    TITLE "0:"
    INDEX 01 00:33:50
  TRACK 37 AUDIO
    TITLE "6:cjc043_1002"
    INDEX 01 00:34:30
  TRACK 38 AUDIO
    TITLE "0:"
    INDEX 01 00:35:31
  TRACK 39 AUDIO
    TITLE "7:cjc043_1003"
    INDEX 01 00:36:05
  TRACK 40 AUDIO
    TITLE "0:"
    INDEX 01 00:38:31
  TRACK 41 AUDIO
    TITLE "6:cjc043_1004"
    INDEX 01 00:39:07
  TRACK 42 AUDIO
    TITLE "0:"
    INDEX 01 00:40:21
  TRACK 43 AUDIO
    TITLE "7:cjc043_1005"
    INDEX 01 00:40:73
  TRACK 44 AUDIO
    TITLE "0:"
    INDEX 01 00:43:23
  TRACK 45 AUDIO
    TITLE "6:cjc043_1006"
    INDEX 01 00:43:74
  TRACK 46 AUDIO
    TITLE "0:"
    INDEX 01 00:45:02
  TRACK 47 AUDIO
    TITLE "7:cjc043_1007"
    INDEX 01 00:45:53
  TRACK 48 AUDIO
    TITLE "0:"
    INDEX 01 00:47:62
  TRACK 49 AUDIO
    TITLE "6:cjc043_1008"
    INDEX 01 00:48:38
  TRACK 50 AUDIO
    TITLE "0:"
    INDEX 01 00:49:49
  TRACK 51 AUDIO
    TITLE "7:cjc043_1009"
    INDEX 01 00:50:29
  TRACK 52 AUDIO
    TITLE "0:"
    INDEX 01 00:53:37
  TRACK 53 AUDIO
    TITLE "6:cjc043_1010"
    INDEX 01 00:54:19
  TRACK 54 AUDIO
    TITLE "0:"
    INDEX 01 00:55:34
  TRACK 55 AUDIO
    TITLE "7:cjc043_1011"
    INDEX 01 00:56:12
  TRACK 56 AUDIO
    TITLE "0:"
    INDEX 01 00:58:73
  TRACK 57 AUDIO
    TITLE "6:cjc043_1012"
    INDEX 01 00:59:53
  TRACK 58 AUDIO
    TITLE "0:"
    INDEX 01 01:00:70
  TRACK 59 AUDIO
    TITLE "7:cjc043_1013"
    INDEX 01 01:01:48
  TRACK 60 AUDIO
    TITLE "0:"
    INDEX 01 01:04:23
  TRACK 61 AUDIO
    TITLE "6:cjc043_1014"
    INDEX 01 01:04:72
  TRACK 62 AUDIO
    TITLE "0:"
    INDEX 01 01:06:10
  TRACK 63 AUDIO
    TITLE "7:cjc043_1015"
    INDEX 01 01:06:61
  TRACK 64 AUDIO
    TITLE "0:"
    INDEX 01 01:08:01
